<?xml version="1.0" encoding="UTF-8" standalone="no"?><!DOCTYPE svg PUBLIC "-//W3C//DTD SVG 1.1//EN" "http://www.w3.org/Graphics/SVG/1.1/DTD/svg11.dtd"><svg width="100%" height="100%" viewBox="0 0 512 512" version="1.1" xmlns="http://www.w3.org/2000/svg" xmlns:xlink="http://www.w3.org/1999/xlink" xml:space="preserve" xmlns:serif="http://www.serif.com/" style="fill-rule:evenodd;clip-rule:evenodd;stroke-linejoin:round;stroke-miterlimit:2;"><rect id="primary" x="0" y="0" width="512" height="512" style="fill:none;"/><clipPath id="_clip1"><rect x="0" y="0" width="512" height="512"/></clipPath><g clip-path="url(#_clip1)"><path d="M96,0c-35.3,0 -64,28.7 -64,64l0,384c0,35.3 28.7,64 64,64l288,0c35.3,0 64,-28.7 64,-64l0,-384c0,-35.3 -28.7,-64 -64,-64l-288,0Zm416,336c0,-8.8 -7.2,-16 -16,-16c-8.8,0 -16,7.2 -16,16l0,64c0,8.8 7.2,16 16,16c8.8,0 16,-7.2 16,-16l0,-64Zm-299.222,-186.223c1.289,-6.798 5.157,-11.604 12.366,-14.887c8.089,-3.633 20.397,-5.216 35.87,-2.637c5.158,0.821 21.158,4.161 25.847,5.451c9.964,2.813 20.338,-2.989 23.151,-13.012c2.813,-10.022 -2.989,-20.337 -13.011,-23.151c-6.506,-1.817 -24.031,-5.392 -29.833,-6.33c-20.338,-3.282 -40.676,-2.051 -57.438,5.51c-17.466,7.912 -30.595,22.623 -34.053,43.488c-0.058,0.294 -0.117,0.645 -0.117,0.938c-1.289,11.546 0.176,22.214 4.748,31.708c4.513,9.437 11.37,16.411 18.755,21.628c0.352,0.293 0.762,0.527 1.172,0.82c-12.425,8.03 -21.686,20.279 -24.499,36.632c-0.059,0.351 -0.117,0.644 -0.117,0.996c-1.348,11.312 0.234,21.744 4.923,31.063c4.63,9.144 11.605,15.825 18.931,20.807c13.129,8.909 30.419,14.067 44.192,18.169l2.169,0.645c15.942,4.806 27.488,8.557 34.814,13.949c3.224,2.345 4.806,4.455 5.568,6.389c0.762,1.875 1.524,5.04 0.528,10.608c-0.997,5.92 -4.513,10.55 -12.133,13.774c-8.205,3.516 -20.748,4.981 -36.338,2.578c-7.502,-1.23 -20.572,-5.685 -31.708,-9.494c-2.52,-0.88 -4.982,-1.7 -7.209,-2.462c-9.788,-3.282 -20.396,2.051 -23.679,11.839c-3.282,9.788 2.052,20.455 11.898,23.737c1.524,0.469 3.341,1.114 5.392,1.817c10.902,3.693 28.426,9.73 39.445,11.488l0.117,0c20.221,3.165 40.324,1.993 56.97,-5.099c17.231,-7.385 30.77,-21.393 34.287,-41.907c1.934,-11.311 1.113,-21.92 -2.931,-31.59c-3.692,-8.792 -9.612,-15.474 -16.176,-20.631c9.67,-8.147 16.703,-19.459 19.107,-34.111c1.875,-11.605 1.113,-22.448 -2.814,-32.295c-3.927,-9.846 -10.432,-17.231 -17.7,-22.858c-13.363,-10.315 -31.415,-16.059 -45.54,-20.513l-0.821,-0.293c-16.059,-5.099 -28.016,-8.968 -36.045,-14.653c-3.575,-2.579 -5.568,-4.982 -6.682,-7.268c-1.055,-2.168 -1.875,-5.45 -1.348,-10.843l-0.058,-0Zm283.222,42.223c-8.8,-0 -16,7.2 -16,16l0,64c0,8.8 7.2,16 16,16c8.8,-0 16,-7.2 16,-16l0,-64c0,-8.8 -7.2,-16 -16,-16Zm-249.542,32.807c4.511,0.012 9.417,0.396 14.673,1.222l9.612,1.524c3.693,1.7 6.858,3.517 9.495,5.568c3.224,2.462 4.923,4.806 5.861,7.151c0.938,2.344 1.641,6.095 0.645,12.249c-1.407,8.616 -7.502,15.473 -21.745,18.169l-7.267,1.349l0,-0.059c-0.117,-0.059 -0.235,-0.059 -0.352,-0.117l-0.82,-0.235c-16.06,-4.806 -28.075,-8.498 -36.163,-13.949c-3.634,-2.462 -5.451,-4.63 -6.447,-6.623c-0.879,-1.758 -1.7,-4.513 -1.231,-9.202c1.114,-5.685 4.63,-10.139 12.015,-13.304c5.385,-2.308 12.637,-3.732 21.41,-3.743l0.314,-0Zm265.542,-144.807c0,-8.8 -7.2,-16 -16,-16c-8.8,-0 -16,7.2 -16,16l0,64c0,8.8 7.2,16 16,16c8.8,-0 16,-7.2 16,-16l0,-64Z" style="fill:#203c53;"/></g></svg>